<svg width="442" height="618" viewBox="0 0 442 618" fill="none" xmlns="http://www.w3.org/2000/svg">
<path d="M94.3488 193.276V494.306L177.296 455.401C181.746 453.314 184.604 448.859 184.646 443.944L185.376 358.562H154.368C143.277 358.562 137.456 345.4 144.917 337.193L219.385 255.277C224.615 249.525 233.727 249.743 238.736 255.689C264.178 285.893 285.399 308.955 310.025 337.777C317.048 345.996 311.166 358.562 300.356 358.562H270.016V507.082L142.258 562.177L32.493 609.513C24.0186 613.168 14.5579 606.922 14.4733 597.694C13.4868 490.085 6.38285e-05 275.755 0 193.278C18.3451 -30.796 388.854 -95.588 439.901 192.184C440.027 192.891 440.095 193.64 440.098 194.358L441.691 617.273L358.648 562.976C356.788 524.978 353.071 398.111 353.059 194.294C353.059 193.624 353.002 192.913 352.894 192.252C324.284 17.2018 110.294 61.7881 94.3488 193.276Z" fill="#47B9AF"/>
</svg>
